<svg width="100" height="21" viewBox="0 0 100 21" fill="none" xmlns="http://www.w3.org/2000/svg">
<path d="M12.66 0.879999L7.88 10.06V15H5.04V10.06L0.24 0.879999H3.48L6.48 7.06L9.48 0.879999H12.66ZM19.2906 3.78C20.3706 3.78 21.3373 4.00667 22.1906 4.46C23.0573 4.91333 23.7373 5.57333 24.2306 6.44C24.724 7.29333 24.9706 8.3 24.9706 9.46C24.9706 10.62 24.724 11.6267 24.2306 12.48C23.7373 13.3333 23.0573 13.9933 22.1906 14.46C21.3373 14.9133 20.3706 15.14 19.2906 15.14C18.2106 15.14 17.2373 14.9133 16.3706 14.46C15.5173 13.9933 14.844 13.3333 14.3506 12.48C13.8573 11.6267 13.6106 10.62 13.6106 9.46C13.6106 8.3 13.8573 7.29333 14.3506 6.44C14.844 5.57333 15.5173 4.91333 16.3706 4.46C17.2373 4.00667 18.2106 3.78 19.2906 3.78ZM19.2906 6.22C18.504 6.22 17.8373 6.5 17.2906 7.06C16.744 7.60667 16.4706 8.40667 16.4706 9.46C16.4706 10.5133 16.744 11.32 17.2906 11.88C17.8373 12.4267 18.504 12.7 19.2906 12.7C20.0773 12.7 20.744 12.4267 21.2906 11.88C21.8373 11.32 22.1106 10.5133 22.1106 9.46C22.1106 8.40667 21.8373 7.60667 21.2906 7.06C20.744 6.5 20.0773 6.22 19.2906 6.22ZM37.5636 3.92V15H34.7436V12.76C34.4503 13.5067 33.9636 14.0933 33.2836 14.52C32.6169 14.9333 31.8436 15.14 30.9636 15.14C29.6836 15.14 28.6636 14.72 27.9036 13.88C27.1436 13.04 26.7636 11.8667 26.7636 10.36V3.92H29.5636V10.04C29.5636 10.92 29.7903 11.6067 30.2436 12.1C30.6969 12.58 31.3103 12.82 32.0836 12.82C32.8969 12.82 33.5436 12.56 34.0236 12.04C34.5036 11.52 34.7436 10.7733 34.7436 9.8V3.92H37.5636ZM42.9477 6.04C43.361 5.33333 43.9077 4.78 44.5877 4.38C45.2677 3.96667 46.0277 3.76 46.8677 3.76V6.78H46.0477C43.981 6.78 42.9477 7.74 42.9477 9.66V15H40.1277V3.92H42.9477V6.04ZM55.6039 12.84H60.3439V15H52.7839V0.879999H55.6039V12.84ZM67.1422 3.78C68.2222 3.78 69.1889 4.00667 70.0422 4.46C70.9089 4.91333 71.5889 5.57333 72.0822 6.44C72.5755 7.29333 72.8222 8.3 72.8222 9.46C72.8222 10.62 72.5755 11.6267 72.0822 12.48C71.5889 13.3333 70.9089 13.9933 70.0422 14.46C69.1889 14.9133 68.2222 15.14 67.1422 15.14C66.0622 15.14 65.0889 14.9133 64.2222 14.46C63.3689 13.9933 62.6955 13.3333 62.2022 12.48C61.7089 11.6267 61.4622 10.62 61.4622 9.46C61.4622 8.3 61.7089 7.29333 62.2022 6.44C62.6955 5.57333 63.3689 4.91333 64.2222 4.46C65.0889 4.00667 66.0622 3.78 67.1422 3.78ZM67.1422 6.22C66.3555 6.22 65.6889 6.5 65.1422 7.06C64.5955 7.60667 64.3222 8.40667 64.3222 9.46C64.3222 10.5133 64.5955 11.32 65.1422 11.88C65.6889 12.4267 66.3555 12.7 67.1422 12.7C67.9289 12.7 68.5955 12.4267 69.1422 11.88C69.6889 11.32 69.9622 10.5133 69.9622 9.46C69.9622 8.40667 69.6889 7.60667 69.1422 7.06C68.5955 6.5 67.9289 6.22 67.1422 6.22ZM79.1552 3.78C80.0885 3.78 80.8885 4 81.5552 4.44C82.2218 4.88 82.6952 5.47333 82.9752 6.22V3.92H85.7752V15.04C85.7752 16.0667 85.5685 16.9867 85.1552 17.8C84.7552 18.6267 84.1485 19.2733 83.3352 19.74C82.5352 20.2067 81.5618 20.44 80.4152 20.44C78.8152 20.44 77.5218 20.06 76.5352 19.3C75.5485 18.54 74.9485 17.5067 74.7352 16.2H77.5152C77.6752 16.76 77.9818 17.1933 78.4352 17.5C78.9018 17.82 79.4952 17.98 80.2152 17.98C81.0418 17.98 81.7085 17.7333 82.2152 17.24C82.7218 16.76 82.9752 16.0267 82.9752 15.04V12.68C82.6952 13.4267 82.2218 14.0267 81.5552 14.48C80.8885 14.92 80.0885 15.14 79.1552 15.14C78.2218 15.14 77.3818 14.9133 76.6352 14.46C75.8885 14.0067 75.3018 13.3533 74.8752 12.5C74.4618 11.6333 74.2552 10.62 74.2552 9.46C74.2552 8.3 74.4618 7.29333 74.8752 6.44C75.3018 5.57333 75.8885 4.91333 76.6352 4.46C77.3818 4.00667 78.2218 3.78 79.1552 3.78ZM80.0352 6.24C79.1552 6.24 78.4485 6.52667 77.9152 7.1C77.3818 7.67333 77.1152 8.46 77.1152 9.46C77.1152 10.46 77.3818 11.2467 77.9152 11.82C78.4485 12.38 79.1552 12.66 80.0352 12.66C80.8885 12.66 81.5885 12.3733 82.1352 11.8C82.6952 11.2133 82.9752 10.4333 82.9752 9.46C82.9752 8.47333 82.6952 7.69333 82.1352 7.12C81.5885 6.53333 80.8885 6.24 80.0352 6.24ZM93.4508 3.78C94.5308 3.78 95.4974 4.00667 96.3508 4.46C97.2174 4.91333 97.8974 5.57333 98.3908 6.44C98.8841 7.29333 99.1308 8.3 99.1308 9.46C99.1308 10.62 98.8841 11.6267 98.3908 12.48C97.8974 13.3333 97.2174 13.9933 96.3508 14.46C95.4974 14.9133 94.5308 15.14 93.4508 15.14C92.3708 15.14 91.3974 14.9133 90.5308 14.46C89.6774 13.9933 89.0041 13.3333 88.5108 12.48C88.0174 11.6267 87.7708 10.62 87.7708 9.46C87.7708 8.3 88.0174 7.29333 88.5108 6.44C89.0041 5.57333 89.6774 4.91333 90.5308 4.46C91.3974 4.00667 92.3708 3.78 93.4508 3.78ZM93.4508 6.22C92.6641 6.22 91.9974 6.5 91.4508 7.06C90.9041 7.60667 90.6308 8.40667 90.6308 9.46C90.6308 10.5133 90.9041 11.32 91.4508 11.88C91.9974 12.4267 92.6641 12.7 93.4508 12.7C94.2374 12.7 94.9041 12.4267 95.4508 11.88C95.9974 11.32 96.2708 10.5133 96.2708 9.46C96.2708 8.40667 95.9974 7.60667 95.4508 7.06C94.9041 6.5 94.2374 6.22 93.4508 6.22Z" fill="white"/>
</svg>
